HIERARCHY
ROOT RootJoint
{
    OFFSET   0.000000   0.000000   0.000000
    CHANNELS 6 Xposition Yposition Zposition Xrotation Yrotation Zrotation
    JOINT pelvis_lowerback
    {
        OFFSET   0.000000   0.093605   0.000000
        CHANNELS 3 Xrotation Yrotation Zrotation
        JOINT lowerback_torso
        {
            OFFSET   0.000000   0.100000   0.000000
            CHANNELS 3 Xrotation Yrotation Zrotation
            JOINT torso_head
            {
                OFFSET   0.000000   0.282350   0.000000
                CHANNELS 3 Xrotation Yrotation Zrotation
                End Site
                {
                    OFFSET   0.000000   0.192650   0.000000
                }
            }
            JOINT rTorso_Clavicle
            {
                OFFSET  -0.001000   0.157500   0.000000
                CHANNELS 3 Xrotation Yrotation Zrotation
                JOINT rShoulder
                {
                    OFFSET  -0.117647   0.000000   0.000000
                    CHANNELS 3 Xrotation Yrotation Zrotation
                    JOINT rElbow
                    {
                        OFFSET  -0.245000   0.000000   0.000000
                        CHANNELS 3 Xrotation Yrotation Zrotation
                        JOINT rWrist
                        {
                            OFFSET  -0.240000   0.000000   0.000000
                            CHANNELS 3 Xrotation Yrotation Zrotation
                            End Site
                            {
                                OFFSET  -0.116353  -0.002500   0.000000
                            }
                        }
                    }
                }
            }
            JOINT lTorso_Clavicle
            {
                OFFSET   0.001000   0.157500   0.000000
                CHANNELS 3 Xrotation Yrotation Zrotation
                JOINT lShoulder
                {
                    OFFSET   0.117647   0.000000   0.000000
                    CHANNELS 3 Xrotation Yrotation Zrotation
                    JOINT lElbow
                    {
                        OFFSET   0.245000   0.000000   0.000000
                        CHANNELS 3 Xrotation Yrotation Zrotation
                        JOINT lWrist
                        {
                            OFFSET   0.240000   0.000000   0.000000
                            CHANNELS 3 Xrotation Yrotation Zrotation
                            End Site
                            {
                                OFFSET   0.116353  -0.002500   0.000000
                            }
                        }
                    }
                }
            }
        }
    }
    JOINT rHip
    {
        OFFSET  -0.100000  -0.051395   0.000000
        CHANNELS 3 Xrotation Yrotation Zrotation
        JOINT rKnee
        {
            OFFSET   0.000000  -0.410000   0.000000
            CHANNELS 3 Xrotation Yrotation Zrotation
            JOINT rAnkle
            {
                OFFSET   0.000000  -0.390000   0.000000
                CHANNELS 3 Xrotation Yrotation Zrotation
                JOINT rToeJoint
                {
                    OFFSET   0.000000  -0.050000   0.130000
                    CHANNELS 3 Xrotation Yrotation Zrotation
                    End Site
                    {
                        OFFSET  -0.010000   0.002000   0.060000
                    }
                }
            }
        }
    }
    JOINT lHip
    {
        OFFSET   0.100000  -0.051395   0.000000
        CHANNELS 3 Xrotation Yrotation Zrotation
        JOINT lKnee
        {
            OFFSET   0.000000  -0.410000   0.000000
            CHANNELS 3 Xrotation Yrotation Zrotation
            JOINT lAnkle
            {
                OFFSET   0.000000  -0.390000   0.000000
                CHANNELS 3 Xrotation Yrotation Zrotation
                JOINT lToeJoint
                {
                    OFFSET   0.000000  -0.050000   0.130000
                    CHANNELS 3 Xrotation Yrotation Zrotation
                    End Site
                    {
                        OFFSET   0.010000   0.002000   0.060000
                    }
                }
            }
        }
    }
}
MOTION
Frames: 10
Frame Time:   0.008333
 -2.376719   0.925631   3.975860   0.000000   0.000000   0.000000   0.000000   0.000000   0.000000   0.000000   0.000000   0.000000   0.000000   0.000000   0.000000   0.000000   0.000000   0.000000   0.000000   0.000000   0.000000   0.000000   0.000000   0.000000   0.000000   0.000000   0.000000   0.000000   0.000000   0.000000   0.000000   0.000000   0.000000   0.000000   0.000000   0.000000   0.000000   0.000000   0.000000   0.000000   0.000000   0.000000   0.000000   0.000000   0.000000   0.000000   0.000000   0.000000   0.000000   0.000000   0.000000   0.000000   0.000000   0.000000   0.000000   0.000000   0.000000   0.000000   0.000000   0.000000   0.000000   0.000000   0.000000
 -2.376522   0.925550   3.975815  -0.273080   0.776016   0.040607   0.153945  -0.057374  -0.154139   0.140279  -0.018066   0.229293   0.049816   0.660944  -0.182153   0.364014  -1.114237  -0.605691  -0.039936  -0.462606   2.345660   0.059247   3.654698  -0.012394   0.055823  -1.315608  -2.196674  -0.154060  -0.065410   0.388331   0.630400  -0.496608  -2.231175   0.053440  -3.493323   0.016870   0.080760   1.852733   1.758340  -0.300594  -0.474816  -0.117745   2.281957   0.001604   0.005955  -0.505944  -1.088508   0.353766  -0.028749   0.000067   0.000199  -0.299585  -0.581926  -0.037528   1.728741  -0.000049   0.002926  -1.886625  -0.196436   0.005343   0.536716  -0.000075  -0.000012
 -2.376263   0.925576   3.975925  -0.708301   2.000627   0.081952   0.289703  -0.249096  -0.288846   0.324715  -0.223499   0.476742   0.137621   1.325627  -0.353498   0.709960  -2.202063  -0.669970  -0.069154  -0.870535   4.947669   0.135871   7.403253  -0.017953   0.128068  -1.777216  -3.801524  -0.297420  -0.405218   0.268463   1.182666  -1.257112  -4.710312   0.124158  -7.167672   0.026021   0.185332   2.545987   2.897219  -0.574274  -0.793023  -0.195430   4.414451   0.003024   0.021480  -1.177485  -1.962659   0.677756  -2.988942   0.006524  -0.000248  -0.450681  -1.142664  -0.055692   3.566213   0.000068   0.012993  -3.648133  -0.384524  -0.003669   0.965931  -0.000166   0.001772
 -2.375897   0.925725   3.976167  -1.211136   3.331855   0.098378   0.381735  -0.481737  -0.370408   0.483900  -0.501329   0.735531   0.215262   1.952754  -0.511229   1.041270  -3.165316  -0.349750  -0.085051  -1.212132   7.652086   0.212900  11.113268  -0.017940   0.198570  -1.957845  -4.791107  -0.433712  -0.884159  -0.217281   1.653231  -2.117819  -7.292792   0.196721 -10.898636   0.027928   0.294744   2.745555   3.440722  -0.887954  -1.167390  -0.229168   6.454141   0.004920   0.033974  -1.945229  -2.878914   0.912837  -3.705343   0.006196  -0.000252  -0.462061  -1.648504  -0.021556   5.329449   0.000641   0.023117  -5.289629  -0.555767  -0.017585   1.365099  -0.000248   0.003699
 -2.375383   0.925789   3.976600  -1.738156   4.708630   0.126750   0.413168  -0.744415  -0.436550   0.601350  -0.812931   0.990388   0.277357   2.538656  -0.656230   1.362801  -4.013932   0.219135  -0.085768  -1.492901  10.373962   0.276084  14.595461  -0.014112   0.268556  -1.964913  -5.297236  -0.560310  -1.427858  -0.931946   2.050840  -3.016569  -9.892041   0.262108 -14.658549   0.024326   0.400730   2.719611   3.525368  -1.179480  -1.554441  -0.269773   8.520484   0.007494   0.044636  -2.605036  -3.769165   1.120177  -4.618358   0.005720  -0.000716  -0.378106  -2.116206   0.026457   7.001951   0.001636   0.031777  -6.821330  -0.714092  -0.035005   1.728689  -0.000291   0.005349
 -2.374711   0.925617   3.977165  -2.261053   6.086427   0.170026   0.389479  -1.019006  -0.491867   0.675462  -1.136920   1.234827   0.322604   3.085664  -0.791101   1.677795  -4.775716   0.940632  -0.069798  -1.735168  13.052339   0.322413  17.851731  -0.008782   0.330890  -1.917269  -5.464191  -0.674884  -1.989088  -1.784852   2.385451  -3.915776 -12.451388   0.315852 -18.433080   0.017366   0.497540   2.590028   3.287507  -1.436518  -1.927534  -0.328591  10.525546   0.010527   0.052706  -3.204863  -4.611158   1.298972  -5.579774   0.004829  -0.001642  -0.239717  -2.549947   0.084305   8.582380   0.002865   0.038434  -8.250830  -0.860889  -0.054653   2.059241  -0.000302   0.006589
 -2.373890   0.925150   3.977785  -2.768930   7.431198   0.221303   0.325874  -1.291719  -0.535014   0.716301  -1.458612   1.469379   0.353294   3.596415  -0.916910   1.987542  -5.467462   1.749422  -0.037826  -1.949345  15.647862   0.352453  20.892742  -0.003580   0.383972  -1.859032  -5.408214  -0.775522  -2.541356  -2.713434   2.666628  -4.793770 -14.934323   0.356540 -22.214237   0.008947   0.582922   2.419443   2.836259  -1.663333  -2.283366  -0.389969  12.442652   0.013467   0.057957  -3.780265  -5.402102   1.450202  -6.505689   0.003715  -0.002650  -0.069136  -2.952780   0.156295  10.071436   0.004137   0.042953  -9.584881  -0.997089  -0.075488   2.361066  -0.000291   0.007406
 -2.372689   0.923467   3.977620  -3.035657   8.320705   0.265132   0.244324  -1.314627  -0.495027   0.621740  -1.724124   1.740802   0.338682   3.805689  -1.088998   2.315928  -6.106483   2.079235  -0.150530  -2.192446  17.881655   0.362798  24.203205   0.003873   0.325170  -1.937756  -4.516783  -0.628820  -2.891740  -3.163945   3.036121  -5.946233 -17.724120   0.387185 -25.981142   0.021155   0.537850   2.217195   2.243487  -2.625502  -2.188298  -0.647746  14.979334   0.021954   0.065823  -4.973198  -5.954727   1.255046  -6.154683   0.004415  -0.000791   0.023664  -3.469847   0.286368  11.226393   0.003341   0.038260 -11.009870  -1.589644  -0.271215   2.393136  -0.000213   0.005864
 -2.371355   0.920734   3.977153  -3.292592   9.107336   0.317877   0.221681  -1.349741  -0.417211   0.558125  -1.973258   1.991809   0.321355   3.988241  -1.226950   2.603696  -6.662604   2.182514  -0.269251  -2.386787  19.818319   0.352262  27.321808   0.008682   0.283841  -1.849992  -3.781112  -0.486575  -3.247738  -3.525733   3.332072  -7.064343 -20.302772   0.404952 -29.759874   0.035104   0.501257   1.971196   1.613046  -3.678744  -2.078364  -1.035567  17.357222   0.030855   0.067607  -6.089878  -6.467213   1.060638  -5.839427   0.005143   0.000361   0.181208  -3.983402   0.498981  12.283412   0.001744   0.033464 -12.347488  -2.147395  -0.468930   2.398689  -0.000169   0.004677
 -2.370072   0.917164   3.976507  -3.535473   9.905139   0.370931   0.231416  -1.426804  -0.336006   0.521931  -2.238825   2.218360   0.309087   4.155989  -1.342064   2.859868  -7.167367   2.161475  -0.387612  -2.559269  21.535246   0.330179  30.241773   0.011589   0.255084  -1.696836  -3.262789  -0.366652  -3.622632  -3.821039   3.552809  -8.148618 -22.676461   0.414217 -33.549059   0.048715   0.471358   1.685057   1.060838  -4.731218  -1.918480  -1.426602  19.568536   0.037877   0.068236  -7.244759  -6.862948   0.905857  -6.639108   0.000442  -0.003332   0.369595  -4.471867   0.808204  13.277252  -0.000204   0.029990 -13.597696  -2.663507  -0.665455   2.408102  -0.000144   0.003725
